<svg width="340" height="181" viewBox="0 0 340 181" fill="none" xmlns="http://www.w3.org/2000/svg">
<path d="M195.48 137.522C226.561 128.647 241.735 99.8763 229.373 73.2615C217.01 46.6467 181.792 32.266 150.711 41.1413C119.63 50.0166 104.456 78.787 116.818 105.402C129.181 132.017 164.399 146.397 195.48 137.522Z" fill="white" stroke="#D99BFF" stroke-width="4.99361" stroke-linecap="round" stroke-linejoin="round"/>
<path d="M142.344 58.0467C137.149 56.2539 131.666 55.2414 126.154 55.0573C129.646 51.5998 133.728 48.5984 138.28 46.1405C144.923 47.5166 151.469 49.2796 157.869 51.4162C185.542 60.7793 179.356 60.9763 212.865 61.2962C215.953 61.3146 219.05 61.5733 222.114 62.0689C224.687 65.189 226.875 68.5102 228.641 71.977C231.62 78.0018 233.246 84.3804 233.433 90.7777C221.714 91.2986 205.801 91.1733 196.712 87.6866C181.426 81.8099 172.587 68.4027 142.344 58.0467Z" fill="#5C1FA8" fill-opacity="0.5"/>
<path d="M229.895 109.603C227.605 114.754 224.278 119.497 220.054 123.636C206.614 120.646 198.515 115.543 180.825 114.355C165.358 113.317 143.367 118.851 129.797 122.883C124.534 118.168 120.31 112.721 117.341 106.82C116.955 105.989 116.584 105.192 116.198 104.361C132.507 100.519 149.542 98.7616 166.749 99.1467C191.509 99.5715 208.12 109.19 229.895 109.603Z" fill="#5C1FA8" fill-opacity="0.5"/>
<path d="M149.843 77.2584C142.087 84.5349 125.828 87.0196 112.621 87.8871C112.434 82.3235 113.348 76.8248 115.327 71.6148C132.209 69.1878 160.556 67.1753 149.843 77.2584Z" fill="#5C1FA8" fill-opacity="0.5"/>
<path d="M177.78 38.1548C243.784 22.407 304.568 22.3544 313.623 40.5658C324.24 61.9413 267.654 99.4458 186.936 124.457C106.217 149.469 32.3749 152.387 21.7747 131.046C12.1643 111.737 57.5793 79.1884 125.933 54.6864" stroke="#D99BFF" stroke-width="4.99361" stroke-linecap="round" stroke-linejoin="round"/>
<path d="M187.437 37.6382C229.179 30.2312 263.101 33.6113 270.023 47.7231C279.126 66.0383 239.451 95.4571 181.407 113.444C123.362 131.432 68.8535 131.184 59.7503 112.868C52.1037 97.5901 78.5991 74.5246 121.271 56.8853" stroke="#D99BFF" stroke-width="4.99361" stroke-linecap="round" stroke-linejoin="round"/>
<path d="M319.654 56.5028C318.845 54.8798 317.493 53.4674 315.769 52.4442C314.045 51.421 312.027 50.8329 309.969 50.7543C307.911 50.6756 305.907 51.11 304.208 52.0024C302.51 52.8949 301.194 54.2054 300.428 55.7682C299.661 57.331 299.478 59.076 299.901 60.7825C300.325 62.4891 301.336 64.0805 302.807 65.3557C304.277 66.6309 306.142 67.5326 308.164 67.9468C310.187 68.3609 312.277 68.269 314.169 67.6826C315.431 67.2971 316.574 66.7011 317.533 65.9291C318.493 65.1572 319.249 64.2247 319.759 63.1852C320.269 62.1458 320.522 61.02 320.504 59.873C320.486 58.7261 320.197 57.5807 319.654 56.5028Z" fill="white"/>
<path d="M70.3171 108.09C69.5073 106.465 68.1537 105.052 66.4277 104.029C64.7017 103.005 62.681 102.418 60.6214 102.342C58.5619 102.265 56.5562 102.702 54.8582 103.598C53.1603 104.493 51.8466 105.807 51.0834 107.373C50.3202 108.939 50.1419 110.686 50.5711 112.393C51.0002 114.101 52.0176 115.691 53.4942 116.964C54.9708 118.236 56.8403 119.134 58.866 119.542C60.8917 119.95 62.9825 119.852 64.8735 119.258C66.1292 118.869 67.2665 118.271 68.2203 117.498C69.1741 116.726 69.9255 115.794 70.4314 114.756C70.9372 113.718 71.1875 112.595 71.1679 111.451C71.1483 110.307 70.8591 109.165 70.3171 108.09Z" fill="white"/>
</svg>
