<svg version="1.1" viewBox="0.0 0.0 241.69291338582678 142.67191601049868" fill="none" stroke="none" stroke-linecap="square" stroke-miterlimit="10" xmlns:xlink="http://www.w3.org/1999/xlink" xmlns="http://www.w3.org/2000/svg"><clipPath id="p.0"><path d="m0 0l241.69292 0l0 142.67192l-241.69292 0l0 -142.67192z" clip-rule="nonzero"/></clipPath><g clip-path="url(#p.0)"><path fill="#000000" fill-opacity="0.0" d="m0 0l241.69292 0l0 142.67192l-241.69292 0z" fill-rule="evenodd"/><path fill="#000000" fill-opacity="0.0" d="m8.0 14.92544l0 0c0 -3.8248148 3.100625 -6.92544 6.92544 -6.92544l82.149124 0c1.8367386 0 3.5982513 0.72964287 4.897026 2.0284147c1.2987671 1.2987719 2.0284119 3.0602846 2.0284119 4.897025l0 82.149124c0 3.8248138 -3.100624 6.925438 -6.925438 6.925438l-82.149124 0c-3.8248148 0 -6.92544 -3.100624 -6.92544 -6.925438z" fill-rule="evenodd"/><path stroke="#9ac294" stroke-width="4.0" stroke-linejoin="round" stroke-linecap="butt" d="m8.0 14.92544l0 0c0 -3.8248148 3.100625 -6.92544 6.92544 -6.92544l82.149124 0c1.8367386 0 3.5982513 0.72964287 4.897026 2.0284147c1.2987671 1.2987719 2.0284119 3.0602846 2.0284119 4.897025l0 82.149124c0 3.8248138 -3.100624 6.925438 -6.925438 6.925438l-82.149124 0c-3.8248148 0 -6.92544 -3.100624 -6.92544 -6.925438z" fill-rule="evenodd"/><path fill="#000000" fill-opacity="0.0" d="m8.039371 97.80315c0 10.299225 1.8188972 17.744118 3.6377945 20.59845c1.8188982 2.854332 3.6377954 1.118103 3.6377954 2.2361984" fill-rule="evenodd"/><path stroke="#9ac294" stroke-width="4.0" stroke-linejoin="round" stroke-linecap="butt" d="m8.039371 97.80315c0 10.299225 1.8188972 17.744118 3.6377945 20.59845c1.8188982 2.854332 3.6377954 1.118103 3.6377954 2.2361984" fill-rule="evenodd"/><path fill="#000000" fill-opacity="0.0" d="m98.93438 8.356956c9.723061 0 16.776817 1.5433073 19.446114 3.0866137c2.6692886 1.5433073 0.9541092 3.0866146 1.9082184 3.0866146" fill-rule="evenodd"/><path stroke="#9ac294" stroke-width="4.0" stroke-linejoin="round" stroke-linecap="butt" d="m98.93438 8.356956c9.723061 0 16.776817 1.5433073 19.446114 3.0866137c2.6692886 1.5433073 0.9541092 3.0866146 1.9082184 3.0866146" fill-rule="evenodd"/><path fill="#9ac294" d="m103.82269 101.501976l8.818901 10.20472l-10.204727 -8.818893z" fill-rule="evenodd"/><path stroke="#9ac294" stroke-width="1.0" stroke-linejoin="round" stroke-linecap="butt" d="m103.82269 101.501976l8.818901 10.20472l-10.204727 -8.818893z" fill-rule="evenodd"/><path fill="#000000" fill-opacity="0.0" d="m15.102047 120.215225l100.09448 0.06298828" fill-rule="evenodd"/><path stroke="#9ac294" stroke-width="4.0" stroke-linejoin="round" stroke-linecap="butt" d="m15.102047 120.215225l100.09448 0.06298828" fill-rule="evenodd"/><path fill="#000000" fill-opacity="0.0" d="m120.073494 14.23622l0 100.220474" fill-rule="evenodd"/><path stroke="#9ac294" stroke-width="4.0" stroke-linejoin="round" stroke-linecap="butt" d="m120.073494 14.23622l0 100.220474" fill-rule="evenodd"/><path fill="#000000" fill-opacity="0.0" d="m120.06036 113.08662c0 3.2821655 -1.6141663 5.670639 -3.2283401 6.5643387c-1.6141739 0.89369965 -3.2283478 0.29263306 -3.2283478 0.5852661" fill-rule="evenodd"/><path stroke="#9ac294" stroke-width="4.0" stroke-linejoin="round" stroke-linecap="butt" d="m120.06036 113.08662c0 3.2821655 -1.6141663 5.670639 -3.2283401 6.5643387c-1.6141739 0.89369965 -3.2283478 0.29263306 -3.2283478 0.5852661" fill-rule="evenodd"/><path fill="#000000" fill-opacity="0.0" d="m8.039371 8.356956l93.98425 0l0 77.5748l-93.98425 0z" fill-rule="evenodd"/><path fill="#9ac294" d="m30.117495 35.79633l0 8.796875l11.671877 0l0 5.640625l-11.671877 0l0 13.203125l-7.890625 0l0 -33.265625l21.859377 0l-0.8125 5.625002l-13.156252 0z" fill-rule="nonzero"/><path fill="#9ac294" d="m118.91338 14.049869l0 0c0 -0.82625294 0.6980133 -1.4960632 1.5590591 -1.4960632l0 0c0.41348267 0 0.8100357 0.15762043 1.102417 0.4381876c0.2923813 0.28056622 0.45663452 0.6610956 0.45663452 1.0578756l0 0c0 0.82625294 -0.6980133 1.4960632 -1.5590515 1.4960632l0 0c-0.86104584 0 -1.5590591 -0.6698103 -1.5590591 -1.4960632z" fill-rule="evenodd"/><path fill="#9ac294" d="m12.748032 120.244095l0 0c0 -1.1219635 1.0787468 -2.0314941 2.4094486 -2.0314941l0 0c1.3307018 0 2.4094486 0.90953064 2.4094486 2.0314941l0 0c0 1.1219635 -1.0787468 2.0314941 -2.4094486 2.0314941l0 0c-1.3307018 0 -2.4094486 -0.90953064 -2.4094486 -2.0314941z" fill-rule="evenodd"/><path fill="#9ac294" d="m113.333336 120.779526l0 0c0 -0.82624817 0.6980133 -1.4960632 1.5590515 -1.4960632l0 0c0.4134903 0 0.81004333 0.15762329 1.102417 0.43818665c0.2923813 0.28057098 0.45664215 0.66109467 0.45664215 1.0578766l0 0c0 0.8262558 -0.6980133 1.4960632 -1.5590591 1.4960632l0 0c-0.8610382 0 -1.5590515 -0.66980743 -1.5590515 -1.4960632z" fill-rule="evenodd"/><path fill="#000000" fill-opacity="0.0" d="m47.33858 90.42782l17.322834 0.03150177" fill-rule="evenodd"/><path stroke="#9ac294" stroke-width="4.0" stroke-linejoin="round" stroke-linecap="butt" d="m47.33858 90.42782l17.322834 0.03150177" fill-rule="evenodd"/><path fill="#000000" fill-opacity="0.0" d="m120.08662 29.190533l0 0c0 -3.8248158 3.100624 -6.9254417 6.925438 -6.9254417l82.149124 0c1.836731 0 3.5982513 0.72964287 4.8970184 2.0284157c1.2987671 1.2987709 2.0284119 3.0602837 2.0284119 4.897026l0 82.149124c0 3.8248138 -3.1006165 6.925438 -6.9254303 6.925438l-82.149124 0c-3.8248138 0 -6.925438 -3.100624 -6.925438 -6.925438z" fill-rule="evenodd"/><path stroke="#9ac294" stroke-width="4.0" stroke-linejoin="round" stroke-linecap="butt" d="m120.08662 29.190533l0 0c0 -3.8248158 3.100624 -6.9254417 6.925438 -6.9254417l82.149124 0c1.836731 0 3.5982513 0.72964287 4.8970184 2.0284157c1.2987671 1.2987709 2.0284119 3.0602837 2.0284119 4.897026l0 82.149124c0 3.8248138 -3.1006165 6.925438 -6.9254303 6.925438l-82.149124 0c-3.8248138 0 -6.925438 -3.100624 -6.925438 -6.925438z" fill-rule="evenodd"/><path fill="#000000" fill-opacity="0.0" d="m120.125984 112.068245c0 10.299217 1.8189011 17.744118 3.6377945 20.598442c1.8189011 2.8543396 3.6377945 1.118103 3.6377945 2.236206" fill-rule="evenodd"/><path stroke="#9ac294" stroke-width="4.0" stroke-linejoin="round" stroke-linecap="butt" d="m120.125984 112.068245c0 10.299217 1.8189011 17.744118 3.6377945 20.598442c1.8189011 2.8543396 3.6377945 1.118103 3.6377945 2.236206" fill-rule="evenodd"/><path fill="#000000" fill-opacity="0.0" d="m211.021 22.622047c9.723053 0 16.776825 1.5433064 19.446106 3.0866146c2.6692963 1.5433064 0.9541168 3.0866127 1.9082336 3.0866127" fill-rule="evenodd"/><path stroke="#9ac294" stroke-width="4.0" stroke-linejoin="round" stroke-linecap="butt" d="m211.021 22.622047c9.723053 0 16.776825 1.5433064 19.446106 3.0866146c2.6692963 1.5433064 0.9541168 3.0866127 1.9082336 3.0866127" fill-rule="evenodd"/><path fill="#9ac294" d="m215.90932 115.76707l8.818893 10.20472l-10.204727 -8.818893z" fill-rule="evenodd"/><path stroke="#9ac294" stroke-width="1.0" stroke-linejoin="round" stroke-linecap="butt" d="m215.90932 115.76707l8.818893 10.20472l-10.204727 -8.818893z" fill-rule="evenodd"/><path fill="#000000" fill-opacity="0.0" d="m127.18866 134.48032l100.09448 0.06298828" fill-rule="evenodd"/><path stroke="#9ac294" stroke-width="4.0" stroke-linejoin="round" stroke-linecap="butt" d="m127.18866 134.48032l100.09448 0.06298828" fill-rule="evenodd"/><path fill="#000000" fill-opacity="0.0" d="m232.16011 28.501312l0 100.220474" fill-rule="evenodd"/><path stroke="#9ac294" stroke-width="4.0" stroke-linejoin="round" stroke-linecap="butt" d="m232.16011 28.501312l0 100.220474" fill-rule="evenodd"/><path fill="#000000" fill-opacity="0.0" d="m232.14699 127.35171c0 3.2821732 -1.6141815 5.6706314 -3.2283478 6.5643387c-1.6141815 0.8937073 -3.2283478 0.29263306 -3.2283478 0.5852661" fill-rule="evenodd"/><path stroke="#9ac294" stroke-width="4.0" stroke-linejoin="round" stroke-linecap="butt" d="m232.14699 127.35171c0 3.2821732 -1.6141815 5.6706314 -3.2283478 6.5643387c-1.6141815 0.8937073 -3.2283478 0.29263306 -3.2283478 0.5852661" fill-rule="evenodd"/><path fill="#000000" fill-opacity="0.0" d="m120.125984 22.622047l93.984245 0l0 77.57481l-93.984245 0z" fill-rule="evenodd"/><path fill="#9ac294" d="m154.42287 44.43642l0 21.296871q0 2.890625 -0.890625 5.25q-0.890625 2.34375 -2.609375 4.0q-1.703125 1.65625 -4.1875 2.546875q-2.484375 0.890625 -5.6875 0.890625q-3.203125 0 -5.546875 -0.828125q-2.34375 -0.828125 -4.5 -2.296875l3.0 -4.84375q1.703125 1.171875 3.1875 1.640625q1.484375 0.46875 3.390625 0.46875q2.5625 0 4.28125 -1.640625q1.71875 -1.640625 1.71875 -5.09375l0 -15.624996l-10.234375 0l0 -5.765625l18.078125 0z" fill-rule="nonzero"/><path fill="#9ac294" d="m231.0 28.31496l0 0c0 -0.826252 0.6980133 -1.4960632 1.5590515 -1.4960632l0 0c0.41349792 0 0.81004333 0.15762138 1.102417 0.43818665c0.29238892 0.28056717 0.45663452 0.6610966 0.45663452 1.0578766l0 0c0 0.826252 -0.69799805 1.4960632 -1.5590515 1.4960632l0 0c-0.8610382 0 -1.5590515 -0.66981125 -1.5590515 -1.4960632z" fill-rule="evenodd"/><path fill="#9ac294" d="m124.83465 134.50919l0 0c0 -1.1219635 1.078743 -2.0314941 2.4094467 -2.0314941l0 0c1.3307037 0 2.4094543 0.90953064 2.4094543 2.0314941l0 0c0 1.1219635 -1.0787506 2.0314941 -2.4094543 2.0314941l0 0c-1.3307037 0 -2.4094467 -0.90953064 -2.4094467 -2.0314941z" fill-rule="evenodd"/><path fill="#9ac294" d="m225.41995 135.04462l0 0c0 -0.82624817 0.6980133 -1.4960632 1.5590515 -1.4960632l0 0c0.41348267 0 0.81004333 0.15762329 1.102417 0.43818665c0.29237366 0.28056335 0.45663452 0.6611023 0.45663452 1.0578766l0 0c0 0.82624817 -0.6980133 1.4960632 -1.5590515 1.4960632l0 0c-0.8610382 0 -1.5590515 -0.66981506 -1.5590515 -1.4960632z" fill-rule="evenodd"/><path fill="#000000" fill-opacity="0.0" d="m159.4252 104.69292l17.32283 0.03149414" fill-rule="evenodd"/><path stroke="#9ac294" stroke-width="4.0" stroke-linejoin="round" stroke-linecap="butt" d="m159.4252 104.69292l17.32283 0.03149414" fill-rule="evenodd"/></g></svg>