<svg width="200" height="73" viewBox="0 0 200 73" fill="none" xmlns="http://www.w3.org/2000/svg">
<path d="M20.7289 25.7644V19.5923H49.8089V25.7644H38.9687V55H31.569V25.7644H20.7289ZM73.8059 29.7755C73.6676 28.3808 73.074 27.2974 72.0251 26.5251C70.9763 25.7529 69.5528 25.3668 67.7548 25.3668C66.533 25.3668 65.5014 25.5397 64.66 25.8855C63.8186 26.2197 63.1732 26.6865 62.7237 27.2859C62.2857 27.8852 62.0667 28.5652 62.0667 29.326C62.0437 29.9599 62.1762 30.5131 62.4643 30.9857C62.764 31.4583 63.1732 31.8674 63.6919 32.2132C64.2105 32.5475 64.8099 32.8414 65.4899 33.0949C66.1699 33.337 66.8961 33.5444 67.6683 33.7173L70.8495 34.478C72.394 34.8238 73.8116 35.2849 75.1026 35.8612C76.3935 36.4375 77.5115 37.1463 78.4566 37.9877C79.4017 38.8291 80.1336 39.8203 80.6523 40.9614C81.1825 42.1025 81.4534 43.4107 81.4649 44.886C81.4534 47.0529 80.9001 48.9316 79.8051 50.5222C78.7217 52.1012 77.1542 53.3287 75.1026 54.2047C73.0625 55.0692 70.6017 55.5014 67.7202 55.5014C64.8617 55.5014 62.3721 55.0634 60.2514 54.1874C58.1421 53.3114 56.4939 52.0148 55.3067 50.2974C54.1311 48.5685 53.5145 46.4305 53.4568 43.8832H60.7009C60.7816 45.0704 61.1216 46.0616 61.7209 46.8569C62.3318 47.6407 63.1444 48.2343 64.1587 48.6377C65.1845 49.0296 66.3428 49.2255 67.6337 49.2255C68.9016 49.2255 70.0023 49.0411 70.9359 48.6723C71.881 48.3034 72.6129 47.7905 73.1316 47.1335C73.6503 46.4766 73.9096 45.7216 73.9096 44.8687C73.9096 44.0734 73.6733 43.4049 73.2008 42.8632C72.7397 42.3215 72.0597 41.8604 71.1607 41.4801C70.2732 41.0997 69.184 40.7539 67.8931 40.4427L64.0376 39.4745C61.0524 38.7484 58.6954 37.6131 56.9665 36.0686C55.2376 34.5242 54.3789 32.4437 54.3904 29.8273C54.3789 27.6835 54.9494 25.8105 56.102 24.2084C57.2661 22.6063 58.8625 21.3558 60.8911 20.4567C62.9196 19.5577 65.2248 19.1082 67.8066 19.1082C70.4345 19.1082 72.7282 19.5577 74.6876 20.4567C76.6586 21.3558 78.1915 22.6063 79.2865 24.2084C80.3814 25.8105 80.9462 27.6662 80.9808 29.7755H73.8059ZM116.116 19.5923V55H109.65L94.2457 32.7146H93.9864V55H86.5003V19.5923H93.0701L108.353 41.8604H108.665V19.5923H116.116Z" fill="white"/>
<rect x="1.5" y="1.5" width="197" height="70" stroke="#D99BFF" stroke-width="3"/>
<path d="M156.737 26.3561C168.772 21.8144 180.422 20.6635 182.871 24.3143C185.744 28.5997 176.367 37.5292 161.875 44.2902C147.383 51.0513 133.342 53.0483 130.474 48.7698C127.875 44.8992 135.305 37.2189 147.447 30.7966" stroke="#D99BFF" stroke-width="1.25101" stroke-linecap="round" stroke-linejoin="round"/>
<path d="M158.568 26.0663C166.279 23.7295 172.914 23.8025 174.794 26.6333C177.257 30.305 170.805 37.221 160.383 42.0832C149.962 46.9454 139.503 47.9155 137.041 44.2438C134.976 41.1819 139.151 35.846 146.639 31.3451" stroke="#D99BFF" stroke-width="1.25101" stroke-linecap="round" stroke-linejoin="round"/>
<path d="M164.024 46.8737C169.634 44.4289 171.415 38.1084 168.002 32.7566C164.589 27.4048 157.275 25.0482 151.665 27.4931C146.055 29.938 144.274 36.2584 147.686 41.6103C151.099 46.9621 158.414 49.3186 164.024 46.8737Z" fill="white" stroke="#D99BFF" stroke-width="1.25101" stroke-linecap="round" stroke-linejoin="round"/>
<path d="M150.724 31.1942C149.658 30.9155 148.567 30.8059 147.503 30.8707C148.037 30.0798 148.702 29.3736 149.478 28.7726C150.806 28.9367 152.129 29.1838 153.44 29.512C159.112 30.9574 157.933 31.1147 164.369 30.5534C164.962 30.4994 165.566 30.4956 166.172 30.5421C166.788 31.1484 167.337 31.8042 167.812 32.4984C168.619 33.7065 169.181 35.0142 169.467 36.3528C167.241 36.6819 164.186 36.954 162.307 36.3929C159.147 35.4467 156.927 32.7997 150.724 31.1942Z" fill="#5C1FA8"/>
<path d="M176.573 26.4865C176.354 26.1611 176.04 25.8902 175.669 25.7078C175.298 25.5255 174.889 25.44 174.491 25.4621C174.093 25.4842 173.726 25.6129 173.436 25.832C173.145 26.051 172.944 26.3507 172.859 26.6929C172.773 27.0352 172.806 27.4047 172.954 27.7548C173.102 28.1048 173.358 28.4198 173.69 28.6597C174.022 28.8996 174.415 29.0539 174.819 29.1028C175.223 29.1518 175.62 29.0933 175.96 28.9348C176.186 28.8302 176.382 28.6838 176.536 28.5038C176.689 28.3239 176.798 28.1141 176.855 27.8864C176.912 27.6588 176.916 27.4179 176.868 27.1776C176.819 26.9373 176.719 26.7024 176.573 26.4865Z" fill="#5C1FA8"/>
<path d="M152.914 35.0836C151.712 36.7556 148.693 37.5818 146.195 38.0115C145.941 36.8478 145.901 35.677 146.076 34.5469C149.217 33.7211 154.572 32.7673 152.914 35.0836Z" fill="#5C1FA8" fill-opacity="0.79"/>
<path d="M169.526 40.37C169.289 41.4936 168.837 42.5511 168.19 43.4986C165.496 43.1234 163.744 42.2046 160.306 42.2871C157.301 42.3595 153.302 43.9329 150.859 45.0333C149.665 44.1428 148.642 43.0792 147.842 41.897C147.735 41.7298 147.633 41.5695 147.526 41.4023C150.502 40.2905 153.699 39.6024 157.012 39.3605C161.775 38.9853 165.336 40.6916 169.526 40.37Z" fill="#5C1FA8"/>
<path d="M134.668 50.0373C134.503 49.7923 134.266 49.5883 133.987 49.4511C133.708 49.3139 133.399 49.2497 133.1 49.2666C132.8 49.2836 132.524 49.3809 132.305 49.5463C132.087 49.7117 131.936 49.9376 131.872 50.1956C131.808 50.4536 131.834 50.732 131.946 50.9955C132.059 51.259 132.252 51.4958 132.503 51.6759C132.753 51.856 133.049 51.9713 133.354 52.0072C133.658 52.043 133.957 51.9979 134.212 51.8775C134.382 51.7983 134.528 51.6879 134.643 51.5524C134.758 51.417 134.839 51.2592 134.881 51.0882C134.923 50.9173 134.926 50.7364 134.89 50.556C134.853 50.3757 134.778 50.1994 134.668 50.0373Z" fill="#6333A2" fill-opacity="0.74"/>
</svg>
